<svg width="1440" height="758" viewBox="0 0 1440 758" fill="none" xmlns="http://www.w3.org/2000/svg">
<g filter="url(#filter0_f_1_104)">
<path d="M240.5 500C116.1 523.2 16.6667 608 -17.5 647.5V-171.5H1533.5C1534.5 -138.167 1512.2 -22.5 1415 173.5C1293.5 418.5 657 716 588.5 647.5C520 579 396 471 240.5 500Z" fill="#7F6FEB" fill-opacity="0.96"/>
</g>
<g filter="url(#filter1_f_1_104)">
<path d="M670 102C653.2 42.8 696.333 -43.6667 720 -79.5C776.167 -91.8333 884.8 -104.4 870 -56C851.5 4.5 817 115.5 780.5 184C744 252.5 672.673 387.988 704 434C720 457.5 915 292 930.5 226C946 160 1015 120.5 1081 49.5C1147 -21.5 1133.5 -98 1178 -116.5C1222.5 -135 1375.5 -79.5 1281 49.5C1186.5 178.5 1252 102 1133.5 184C1015 266 1057 315.5 915 389L912.648 390.217C772.82 462.595 756.415 471.086 651.5 486.5C546 502 633 392 670 331.5C707 271 691 176 670 102Z" fill="#2F2DDE"/>
</g>
<g filter="url(#filter2_f_1_104)">
<path d="M436 242.5C456 157.7 407.333 20.1667 380.5 -38H-22.5V572C-13 493 20.8 332.3 80 321.5C154 308 212.5 410.5 212.5 368.5C212.5 326.5 122 190.5 128.5 155C135 119.5 154 96.5 212.5 113C271 129.5 411 348.5 436 242.5Z" fill="#FD905D"/>
<path d="M399.569 -46.7968L393.939 -59H380.5H-22.5H-43.5V-38V572L-1.65021 574.507C2.99259 535.899 13.5851 477.443 30.046 427.782C38.3031 402.872 47.6975 381.228 57.9255 365.574C68.589 349.253 77.6184 343.281 83.7689 342.159C110.616 337.261 136.844 353.273 161.056 372.224C163.919 374.465 166.662 376.667 169.342 378.824L170.152 379.477C172.521 381.384 174.88 383.283 177.108 385.035C181.761 388.693 187.201 392.814 192.429 395.563C195.046 396.94 198.918 398.69 203.533 399.375C208.524 400.115 215.536 399.715 222.031 395.086C228.161 390.717 230.821 384.692 232.014 380.525C233.213 376.335 233.5 372.105 233.5 368.5C233.5 360.033 231.326 350.889 228.652 342.408C225.877 333.609 222.047 323.958 217.708 314.015C209.699 295.661 199.331 274.91 189.269 254.772C188.46 253.154 187.654 251.54 186.851 249.932C175.876 227.951 165.531 207.006 158.303 189.439C154.691 180.661 152.09 173.276 150.58 167.41C149.115 161.717 149.153 159.202 149.159 158.825C149.16 158.777 149.16 158.763 149.157 158.782C152.043 143.018 156.817 135.661 162.207 132.259C167.645 128.828 179.807 125.598 206.799 133.211C210.078 134.136 216.04 137.281 224.992 144.234C233.543 150.877 243.253 159.733 253.927 170.139C263.718 179.684 273.953 190.167 284.54 201.011C285.46 201.954 286.383 202.899 287.309 203.847C298.791 215.604 310.637 227.685 322.279 238.846C333.893 249.981 345.645 260.534 357.012 269.175C368.157 277.648 380.105 285.202 392.085 289.216C404.278 293.302 419.386 294.557 433.075 285.645C446.005 277.228 452.79 262.794 456.439 247.321C467.639 199.833 459.391 140.164 446.189 87.1849C432.812 33.5005 413.467 -16.6689 399.569 -46.7968ZM212.21 358.503C212.211 358.505 212.173 358.489 212.095 358.451C212.171 358.482 212.21 358.502 212.21 358.503Z" stroke="#FD7DD6" stroke-width="42"/>
</g>
<g filter="url(#filter3_f_1_104)">
<path d="M1233.5 173.5C1229.1 110.3 1282.67 1.16667 1310 -45.5C1364.33 -34 1459.3 -11 1404.5 -11C1336 -11 1370.5 105 1310 157.5C1249.5 210 1233.5 363 1215 315.5C1196.5 268 1239 252.5 1233.5 173.5Z" fill="#FD7DD7"/>
</g>
<defs>
<filter id="filter0_f_1_104" x="-117.5" y="-271.5" width="1751.03" height="1028.99" filterUnits="userSpaceOnUse" color-interpolation-filters="sRGB">
<feFlood flood-opacity="0" result="BackgroundImageFix"/>
<feBlend mode="normal" in="SourceGraphic" in2="BackgroundImageFix" result="shape"/>
<feGaussianBlur stdDeviation="50" result="effect1_foregroundBlur_1_104"/>
</filter>
<filter id="filter1_f_1_104" x="501.07" y="-219.97" width="910.189" height="807.95" filterUnits="userSpaceOnUse" color-interpolation-filters="sRGB">
<feFlood flood-opacity="0" result="BackgroundImageFix"/>
<feBlend mode="normal" in="SourceGraphic" in2="BackgroundImageFix" result="shape"/>
<feGaussianBlur stdDeviation="50" result="effect1_foregroundBlur_1_104"/>
</filter>
<filter id="filter2_f_1_104" x="-139.3" y="-154.8" width="696.79" height="806.615" filterUnits="userSpaceOnUse" color-interpolation-filters="sRGB">
<feFlood flood-opacity="0" result="BackgroundImageFix"/>
<feBlend mode="normal" in="SourceGraphic" in2="BackgroundImageFix" result="shape"/>
<feGaussianBlur stdDeviation="37.4" result="effect1_foregroundBlur_1_104"/>
</filter>
<filter id="filter3_f_1_104" x="1110.3" y="-145.5" width="410.67" height="570.022" filterUnits="userSpaceOnUse" color-interpolation-filters="sRGB">
<feFlood flood-opacity="0" result="BackgroundImageFix"/>
<feBlend mode="normal" in="SourceGraphic" in2="BackgroundImageFix" result="shape"/>
<feGaussianBlur stdDeviation="50" result="effect1_foregroundBlur_1_104"/>
</filter>
</defs>
</svg>
